<svg width="38" height="38" viewBox="0 0 38 38" fill="none" xmlns="http://www.w3.org/2000/svg">
<path d="M3.49609 11.8086H11.4955V3.90234H3.49609V11.8086ZM4.49564 4.89024H10.496V10.8207H4.49564V4.89024Z" fill="#009FDB"/>
<path d="M3.49609 34.541H11.4955V26.6348H3.49609V34.541ZM4.49564 27.6227H10.496V33.5531H4.49564V27.6227Z" fill="#009FDB"/>
<path d="M26.4977 11.8086H34.4971V3.90234H26.4977V11.8086ZM33.4976 10.8207H27.4972V4.89024H33.4976V10.8207Z" fill="#009FDB"/>
<path d="M0.999053 24.1627H13.9993V37.0115H0.999053V24.1627ZM-0.000488281 37.9994H14.9988V23.1748H-0.000488281V37.9994Z" fill="black"/>
<path d="M0.999053 1.43175H13.9993V14.2806H0.999053V1.43175ZM-0.000488281 15.2684H14.9988V0.443848H-0.000488281V15.2684Z" fill="black"/>
<path d="M24.0006 1.43175H37.0009V14.2806H24.0006V1.43175ZM23.0011 15.2684H38.0004V0.443848H23.0011V15.2684Z" fill="black"/>
<path d="M19.9253 0H17.5543V15.2335H19.9253V0Z" fill="black"/>
<path d="M-0.000488281 18.7275V19.7154H18.4996V38H37.9991V37.0121H19.4991V18.7275H-0.000488281Z" fill="black"/>
<path d="M23.0011 18.7275V34.0438H24.0006V19.717H37.0009V33.059H31.0005V23.1693H30.001V34.0438H38.0004V18.7275H23.0011Z" fill="black"/>
</svg>
