<svg width="39" height="38" viewBox="0 0 39 38" fill="none" xmlns="http://www.w3.org/2000/svg">
<path d="M34.4723 31.8528L38.3265 29.9526L25.1913 24.7021L30.4423 37.826L32.3432 33.9733L36.3716 38.0001L38.4992 35.8734L34.4723 31.8528ZM32.0734 32.4415L30.5317 35.6084L26.8193 26.3311L36.1003 30.042L32.9306 31.5831L37.1857 35.8364L36.3254 36.6964L32.0734 32.4415Z" fill="#009FDB"/>
<path d="M20.1646 33.2996C21.9749 31.2903 23.1829 28.8123 23.6504 26.149C24.2978 23.2976 24.6317 20.3842 24.6463 17.4604H33.9736C33.9452 20.2434 33.1968 22.9717 31.8013 25.38L32.5722 25.8331C34.6741 22.2177 35.3859 17.9606 34.5744 13.8585C33.7629 9.75641 31.4838 6.0905 28.1635 3.54691C24.8433 1.00331 20.7095 -0.243628 16.5359 0.0394733C12.3623 0.322575 8.43497 2.11631 5.48893 5.08496C2.54288 8.05361 0.780072 11.9937 0.530431 16.1678C0.28079 20.3418 1.56143 24.4638 4.13266 27.7621C6.70389 31.0605 10.3895 33.3092 14.4996 34.0873C18.6097 34.8655 22.8627 34.1197 26.4624 31.9897L26.0092 31.2191C24.208 32.2712 22.2256 32.9768 20.1646 33.2996ZM22.9258 25.1997C21.2444 24.5122 19.4451 24.1589 17.6285 24.1594C15.8464 24.1661 14.081 24.5037 12.4222 25.155C11.8785 22.596 11.6052 19.987 11.6067 17.371H23.7398C23.7396 20.0011 23.4673 22.6241 22.9273 25.1981L22.9258 25.1997ZM11.6082 16.5111C11.6331 14.0463 11.9063 11.5902 12.4238 9.18015C14.0763 9.85287 15.8459 10.1912 17.6301 10.1757C19.4328 10.1759 21.218 9.82195 22.8842 9.13392C23.4007 11.5446 23.6729 14.0011 23.6966 16.4664H11.6098L11.6082 16.5111ZM33.972 16.5111H24.6479C24.6131 13.91 24.325 11.3185 23.7876 8.77331C25.6231 7.89666 27.2452 6.63023 28.5406 5.06239C30.1567 6.5183 31.4688 8.27939 32.4012 10.2442C33.3336 12.2091 33.8664 14.3389 33.972 16.5111ZM27.8607 4.4737C26.6839 5.89614 25.2177 7.05188 23.5594 7.86407C23.0457 5.34477 21.8757 3.0057 20.1677 1.08332C22.9818 1.53097 25.632 2.69896 27.8607 4.4737ZM22.6992 8.27554C21.0969 8.96222 19.3718 9.31613 17.6285 9.31577C15.906 9.30289 14.2016 8.9635 12.6057 8.31561C13.7373 3.88038 15.5935 0.893771 17.6763 0.893771C19.7591 0.893771 21.6123 3.885 22.6992 8.27554ZM11.7886 7.91339C10.1399 7.08612 8.67654 5.93267 7.48726 4.52301C9.70001 2.72009 12.3592 1.54864 15.1834 1.13264C13.4402 3.03098 12.265 5.38035 11.7917 7.91339H11.7886ZM6.76575 5.10708C8.07064 6.68747 9.71322 7.9555 11.5728 8.818C11.0326 11.3477 10.7444 13.9246 10.7125 16.5111H1.42378C1.51283 14.351 2.03101 12.2303 2.94814 10.2724C3.86527 8.3145 5.16301 6.55864 6.76575 5.10708ZM1.37753 17.4157H10.7032C10.689 20.1544 10.9775 22.8864 11.5635 25.5618C9.71445 26.4379 8.07755 27.7045 6.76575 29.2743C5.10697 27.7687 3.77341 25.9402 2.84686 23.901C1.9203 21.8619 1.42031 19.6549 1.37753 17.4157ZM7.4888 29.8599C8.66564 28.4374 10.1319 27.2817 11.7901 26.4695C12.2933 29.008 13.4641 31.3666 15.1819 33.3027C12.3597 32.8499 9.70643 31.6625 7.4888 29.8599ZM12.6519 26.1043C14.2474 25.4535 15.9532 25.1155 17.6763 25.1087C19.414 25.1198 21.1342 25.4575 22.747 26.1043C21.5706 30.6751 19.6636 33.4799 17.6763 33.4799C15.5935 33.4814 13.7311 30.4948 12.6519 26.1043Z" fill="black"/>
</svg>
