<svg width="48" height="49" viewBox="0 0 48 49" fill="none" xmlns="http://www.w3.org/2000/svg">
<path d="M42.7 25.5297L39.2 18.4797C38.65 17.5297 37.65 16.9297 36.6 16.9297H29.5V13.9297C29.5 12.2797 28.15 10.9297 26.5 10.9297H8C6.35 10.9297 5 12.2797 5 13.9297V31.4297C5 33.0797 6.35 34.4297 8 34.4297H11.05C11.3 36.1297 12.75 37.4297 14.5 37.4297C16.25 37.4297 17.7 36.1297 17.95 34.4297H31.05C31.3 36.1297 32.75 37.4297 34.5 37.4297C36.25 37.4297 37.7 36.1297 37.95 34.4297H40C41.65 34.4297 43 33.0797 43 31.4297V26.8797C43 26.4297 42.9 25.9297 42.7 25.5297ZM38.3 18.9297L41.3 24.9297H37C35.9 24.9297 35 24.0297 35 22.9297V17.9297H36.55C37.25 17.9297 37.95 18.3297 38.3 18.9297ZM14.5 36.4297C13.1 36.4297 12 35.3297 12 33.9297C12 32.5297 13.1 31.4297 14.5 31.4297C15.9 31.4297 17 32.5297 17 33.9297C17 35.3297 15.85 36.4297 14.5 36.4297ZM17.95 33.4297C17.7 31.7297 16.25 30.4297 14.5 30.4297C12.75 30.4297 11.3 31.7297 11.05 33.4297H8C6.9 33.4297 6 32.5297 6 31.4297V13.9297C6 12.8297 6.9 11.9297 8 11.9297H26.5C27.6 11.9297 28.5 12.8297 28.5 13.9297V33.4297H17.95ZM34.5 36.4297C33.1 36.4297 32 35.3297 32 33.9297C32 32.5297 33.1 31.4297 34.5 31.4297C35.9 31.4297 37 32.5297 37 33.9297C37 35.3297 35.9 36.4297 34.5 36.4297ZM42 31.4297C42 32.5297 41.1 33.4297 40 33.4297H37.95C37.7 31.7297 36.25 30.4297 34.5 30.4297C32.75 30.4297 31.3 31.7297 31.05 33.4297H29.5V17.9297H34V22.9297C34 24.5797 35.35 25.9297 37 25.9297H41.75V25.9797C41.9 26.2797 41.95 26.5797 41.95 26.8797V31.4297H42Z" fill="black"/>
<path d="M38.5 27.4297H34V28.4297H38.5V27.4297Z" fill="#009FDB"/>
</svg>
